<svg width="230" height="46" viewBox="0 0 230 46" fill="none" xmlns="http://www.w3.org/2000/svg">
<path d="M5.16194 19.8021C5.49589 19.8253 5.81593 19.8716 6.12669 19.9458C6.43745 20.0201 6.72966 20.1267 6.99867 20.2659C7.27233 20.405 7.50888 20.5906 7.70832 20.8271C7.9124 21.059 8.0701 21.3466 8.1907 21.6852C8.30665 22.0284 8.36695 22.4412 8.36695 22.9189C8.36695 23.5219 8.25563 24.0228 8.033 24.4171C7.81036 24.8113 7.50888 25.1175 7.12854 25.3447C6.74821 25.572 6.30758 25.7251 5.80665 25.8132C5.30572 25.9013 4.7816 25.9477 4.22966 25.9477H2.79645V29.3011H0.917969V19.7742H4.17864C4.50331 19.7742 4.83263 19.7881 5.16658 19.8067L5.16194 19.8021ZM2.79645 24.4867H4.34561C4.63318 24.4867 4.90684 24.4635 5.16194 24.4217C5.41704 24.38 5.63504 24.3011 5.8252 24.1852C6.01537 24.0692 6.16379 23.9115 6.27047 23.7121C6.38179 23.508 6.43281 23.2529 6.43281 22.9375C6.43281 22.5432 6.36324 22.2325 6.22873 22.0099C6.09422 21.7872 5.91797 21.6202 5.69997 21.5043C5.48661 21.3883 5.24543 21.3188 4.98569 21.2863C4.72131 21.2585 4.46621 21.2399 4.2111 21.2399H2.79181V24.4867H2.79645Z" fill="black"/>
<path d="M18.0047 26.5456C17.7867 27.1532 17.4713 27.6773 17.0632 28.1087C16.655 28.5447 16.168 28.8786 15.5929 29.1152C15.0177 29.3517 14.3776 29.4723 13.668 29.4723C12.9584 29.4723 12.3183 29.3517 11.7431 29.1152C11.168 28.8786 10.681 28.5447 10.2728 28.1087C9.86466 27.6773 9.5539 27.1532 9.33127 26.5456C9.11327 25.938 9.00195 25.2654 9.00195 24.528C9.00195 23.7905 9.10863 23.1179 9.33127 22.5103C9.54926 21.9027 9.86466 21.3832 10.2728 20.9519C10.681 20.5205 11.1726 20.1912 11.7431 19.9547C12.3136 19.7181 12.9584 19.6022 13.668 19.6022C14.3776 19.6022 15.0177 19.7181 15.5929 19.9547C16.168 20.1912 16.655 20.5252 17.0632 20.9519C17.4713 21.3786 17.7821 21.8981 18.0047 22.5103C18.2227 23.1179 18.334 23.7905 18.334 24.528C18.334 25.2654 18.2227 25.938 18.0047 26.5456ZM11.1634 26.0122C11.3071 26.4435 11.502 26.8007 11.7478 27.0883C11.9936 27.3758 12.2812 27.5985 12.6151 27.7469C12.9491 27.8953 13.2969 27.9695 13.668 27.9695C14.0391 27.9695 14.3869 27.8953 14.7209 27.7469C15.0548 27.5985 15.3424 27.3805 15.5882 27.0883C15.834 26.796 16.0289 26.4389 16.1726 26.0122C16.3164 25.5855 16.3906 25.0845 16.3906 24.528C16.3906 23.9714 16.3164 23.4751 16.1726 23.0484C16.0289 22.6263 15.834 22.2691 15.5882 21.9769C15.3424 21.6894 15.0548 21.4667 14.7209 21.3183C14.3869 21.1699 14.0391 21.0957 13.668 21.0957C13.2969 21.0957 12.9491 21.1699 12.6151 21.3183C12.2812 21.4667 11.9936 21.6847 11.7478 21.9769C11.502 22.2691 11.3071 22.6263 11.1634 23.0484C11.0196 23.4751 10.9454 23.9667 10.9454 24.528C10.9454 25.0892 11.0196 25.5855 11.1634 26.0122Z" fill="black"/>
<path d="M28.4971 19.7697H30.4173L28.3023 29.2966H26.0806L24.6335 22.2001L23.1863 29.2966H20.9646L18.8496 19.7697H20.793L22.2123 26.7084L23.5388 19.7697H25.7327L27.1938 26.7502L28.4971 19.7697Z" fill="black"/>
<path d="M38.344 19.7697V21.2956H33.2837V23.6611H38.0704V25.1871H33.2837V27.7752H38.344V29.3012H31.4053V19.7743H38.344V19.7697Z" fill="black"/>
<path d="M43.0136 25.5674H41.4644V29.3011H39.5859V19.7742H42.7121C43.5006 19.7742 44.1685 19.8299 44.7158 19.9458C45.2631 20.0618 45.713 20.2334 46.0563 20.47C46.3995 20.7065 46.6546 21.008 46.8123 21.3698C46.97 21.7316 47.0488 22.1676 47.0488 22.6638C47.0488 23.2158 46.9097 23.7074 46.636 24.1434C46.3624 24.5794 45.9264 24.9227 45.3281 25.1778L47.4431 29.3058H45.3512L43.4588 25.572H43.0136V25.5674ZM41.4644 24.1063H43.0136C43.7511 24.1063 44.2845 23.9857 44.6184 23.7445C44.9524 23.5034 45.1193 23.1462 45.1193 22.6731C45.1193 22.3995 45.0637 22.1722 44.957 21.9913C44.8457 21.8104 44.6973 21.6573 44.5024 21.546C44.3076 21.4347 44.0804 21.3512 43.8067 21.3095C43.5331 21.2677 43.2409 21.2445 42.9255 21.2445H41.4644V24.111V24.1063Z" fill="black"/>
<path d="M55.4905 19.7697V21.2956H50.4302V23.6611H55.2122V25.1871H50.4302V27.7752H55.4905V29.3012H48.5518V19.7743H55.4905V19.7697Z" fill="black"/>
<path d="M61.6599 19.9784C62.3093 20.1175 62.8705 20.368 63.3436 20.7251C63.8167 21.0823 64.1877 21.5693 64.4521 22.1862C64.7211 22.7984 64.851 23.5776 64.851 24.5238C64.851 25.47 64.7165 26.2492 64.4521 26.8661C64.1831 27.4784 63.812 27.9654 63.3436 28.3318C62.8705 28.6936 62.3093 28.9487 61.6599 29.0878C61.0106 29.227 60.3102 29.2966 59.5542 29.2966H56.7295V19.7697H59.5542C60.3102 19.7697 61.0106 19.8392 61.6599 19.983V19.9784ZM62.6154 22.8123C62.4206 22.3763 62.1655 22.047 61.8408 21.8151C61.5161 21.5832 61.1497 21.4301 60.7369 21.3559C60.3241 21.2817 59.902 21.2446 59.4753 21.2446H58.608V27.8309H59.4753C59.9067 27.8309 60.3241 27.7938 60.7369 27.7196C61.1497 27.6453 61.5161 27.4923 61.8408 27.2604C62.1655 27.0285 62.4252 26.6945 62.6154 26.2632C62.8102 25.8272 62.903 25.252 62.903 24.5331C62.903 23.8142 62.8056 23.253 62.6154 22.817V22.8123Z" fill="black"/>
<path d="M72.9913 19.7697C73.4134 19.7697 73.8262 19.8068 74.239 19.881C74.6518 19.9552 75.0229 20.0851 75.3522 20.2752C75.6815 20.4654 75.9459 20.7158 76.1546 21.0359C76.3633 21.3559 76.4654 21.7594 76.4654 22.2511C76.4654 22.4784 76.4329 22.6964 76.368 22.9005C76.303 23.1045 76.2149 23.2993 76.1129 23.471C76.0062 23.6472 75.8902 23.8003 75.765 23.9394C75.6398 24.0739 75.5145 24.1806 75.3893 24.2594C75.5748 24.3476 75.7511 24.4496 75.9227 24.5702C76.0943 24.6862 76.2427 24.8346 76.3772 25.0108C76.5117 25.1871 76.6138 25.3912 76.6926 25.637C76.7715 25.8782 76.8132 26.1611 76.8132 26.4858C76.8132 27.0006 76.7158 27.4366 76.5164 27.7938C76.3169 28.1509 76.0526 28.4385 75.7186 28.6611C75.3847 28.8837 74.9997 29.0461 74.5544 29.1481C74.1138 29.2502 73.6453 29.3012 73.1537 29.3012H69.29V19.7743H72.996L72.9913 19.7697ZM73.1073 23.6982C73.5526 23.6982 73.9051 23.5915 74.1509 23.3828C74.4014 23.1741 74.5266 22.8587 74.5266 22.4366C74.5266 22.0609 74.4014 21.7641 74.1463 21.5554C73.8912 21.3466 73.5479 21.24 73.1073 21.24H71.1639V23.6982H73.1073ZM73.2418 27.8262C73.7937 27.8262 74.2065 27.7103 74.4756 27.483C74.7492 27.2557 74.8837 26.9218 74.8837 26.4858C74.8837 26.0498 74.7446 25.6973 74.4616 25.4654C74.1834 25.2335 73.7474 25.1175 73.1583 25.1175H71.1592V27.8262H73.2372H73.2418Z" fill="black"/>
<path d="M81.1685 23.7488L83.432 19.7645H85.5748L82.0637 25.6133V29.2914H80.1852V25.5855L76.7529 19.7645H78.9468L81.1685 23.7488Z" fill="black"/>
<path d="M141.962 45.8316C130.895 45.8316 120.478 43.5357 112.62 39.3706C104.541 35.0849 100.088 29.3056 100.088 23.0951C100.088 16.8845 104.536 11.1053 112.62 6.81956C120.478 2.6498 130.9 0.358521 141.962 0.358521C142.579 0.358521 143.08 0.859448 143.08 1.47633C143.08 2.09321 142.579 2.59414 141.962 2.59414C130.654 2.59414 121.456 11.7917 121.456 23.0997C121.456 34.4077 130.654 43.6053 141.962 43.6053C142.579 43.6053 143.08 44.1062 143.08 44.7231C143.08 45.34 142.579 45.8409 141.962 45.8409V45.8316ZM141.962 1.09136C131.016 1.09136 120.719 3.35481 112.964 7.46891C105.134 11.6201 100.825 17.1674 100.825 23.0904C100.825 29.0134 105.134 34.5607 112.964 38.7119C120.714 42.826 131.011 45.0895 141.962 45.0895C142.17 45.0895 142.342 44.9179 142.342 44.7092C142.342 44.5004 142.17 44.3288 141.962 44.3288C130.25 44.3288 120.719 34.7973 120.719 23.0858C120.719 11.3743 130.25 1.84739 141.962 1.84739C142.17 1.84739 142.342 1.67577 142.342 1.47169C142.342 1.26761 142.17 1.09136 141.962 1.09136ZM132.616 43.2852L129.494 42.0886C120 38.4522 114.1 31.1748 114.1 23.0904C114.1 15.006 120 7.72865 129.494 4.09229L132.616 2.89563L129.833 4.74164C123.655 8.84182 119.963 15.7017 119.963 23.0858C119.963 30.4698 123.65 37.3298 129.833 41.4299L132.62 43.276L132.616 43.2852ZM126.957 6.01715C119.411 9.80193 114.837 16.147 114.837 23.0904C114.837 30.0338 119.411 36.3836 126.957 40.1637C122.068 35.8687 119.221 29.6813 119.221 23.0904C119.221 16.4995 122.064 10.3121 126.957 6.01715ZM124.401 41.3186C113.993 37.4364 107.778 30.6229 107.778 23.0904C107.778 15.558 113.993 8.74442 124.401 4.86223L124.717 5.5255C123.678 6.1331 122.685 6.79637 121.767 7.49674C116.336 11.6526 113.349 17.1906 113.349 23.0858C113.349 28.981 116.34 34.519 121.767 38.6748C122.685 39.3752 123.678 40.0385 124.717 40.6461L124.401 41.3094V41.3186ZM121.08 7.09785C113.242 10.9708 108.516 16.8845 108.516 23.0904C108.516 29.2964 113.242 35.2147 121.08 39.083C115.612 34.8019 112.606 29.134 112.606 23.0904C112.606 17.0468 115.612 11.3789 121.08 7.09785ZM119.23 40.6461C117.119 39.8854 115.13 39.0088 113.316 38.0487C105.747 34.032 101.581 28.7212 101.581 23.0951C101.581 17.4689 105.751 12.1535 113.316 8.14145C115.13 7.18134 117.115 6.30472 119.23 5.54405L119.527 6.21659C118.752 6.62475 118.01 7.05147 117.319 7.48282C110.677 11.6387 107.017 17.1813 107.017 23.0904C107.017 28.9995 110.677 34.5468 117.319 38.698C118.01 39.1294 118.757 39.5561 119.527 39.9643L119.23 40.6368V40.6461ZM115.19 8.0255C114.67 8.27596 114.16 8.53106 113.669 8.7908C106.354 12.673 102.324 17.7518 102.324 23.0904C102.324 28.429 106.354 33.5125 113.669 37.3901C114.165 37.6544 114.67 37.9095 115.19 38.1554C109.429 34.0088 106.285 28.7166 106.285 23.0858C106.285 17.455 109.429 12.1628 115.195 8.01622L115.19 8.0255Z" fill="black"/>
<path d="M188.127 45.8317C187.51 45.8317 187.009 45.3308 187.009 44.7139C187.009 44.097 187.51 43.5961 188.127 43.5961C199.435 43.5961 208.632 34.3985 208.632 23.0905C208.632 11.7825 199.435 2.58493 188.127 2.58493C187.51 2.58493 187.009 2.084 187.009 1.46712C187.009 0.850232 187.51 0.349304 188.127 0.349304C199.193 0.349304 209.611 2.64522 217.468 6.81034C225.548 11.0961 230 16.8753 230 23.0859C230 29.2964 225.552 35.0756 217.468 39.3614C209.611 43.5311 199.189 45.8224 188.127 45.8224V45.8317ZM188.127 1.09142C187.918 1.09142 187.746 1.26303 187.746 1.47175C187.746 1.68047 187.918 1.84745 188.127 1.84745C199.843 1.84745 209.37 11.379 209.37 23.0905C209.37 34.802 199.838 44.3335 188.127 44.3335C187.918 44.3335 187.746 44.5051 187.746 44.7139C187.746 44.9226 187.918 45.0942 188.127 45.0942C199.073 45.0942 209.37 42.8308 217.125 38.7167C224.954 34.5654 229.263 29.0135 229.263 23.0951C229.263 17.1768 224.954 11.6248 217.125 7.47361C209.374 3.35951 199.077 1.09606 188.127 1.09606V1.09142ZM197.473 43.2853L200.256 41.4393C206.434 37.3391 210.126 30.4792 210.126 23.0951C210.126 15.7111 206.438 8.85116 200.256 4.75097L197.473 2.90496L200.594 4.10162C210.089 7.73799 215.988 15.0154 215.988 23.0998C215.988 31.1842 210.089 38.4615 200.594 42.0979L197.473 43.2946V43.2853ZM203.131 6.01721C208.025 10.3122 210.868 16.4996 210.868 23.0905C210.868 29.6814 208.025 35.8688 203.131 40.1638C210.678 36.379 215.251 30.0385 215.251 23.0905C215.251 16.1424 210.678 9.79736 203.131 6.01721ZM205.692 41.3187L205.376 40.6554C206.42 40.0478 207.412 39.3846 208.326 38.6842C213.757 34.5283 216.744 28.9903 216.744 23.0951C216.744 17.2 213.753 11.6619 208.326 7.50608C207.408 6.80571 206.415 6.14244 205.376 5.53483L205.692 4.87157C216.1 8.75376 222.315 15.5673 222.315 23.0998C222.315 30.6322 216.1 37.4458 205.692 41.328V41.3187ZM209.012 7.10255C214.476 11.3836 217.487 17.0515 217.487 23.0951C217.487 29.1387 214.481 34.8113 209.012 39.0877C216.851 35.2148 221.577 29.3011 221.577 23.0951C221.577 16.8892 216.851 10.9755 209.012 7.10255ZM210.859 40.6462L210.562 39.9736C211.336 39.5654 212.078 39.1387 212.769 38.7074C219.411 34.5515 223.071 29.0089 223.071 23.0998C223.071 17.1907 219.411 11.648 212.769 7.49216C212.078 7.06081 211.336 6.63409 210.562 6.22593L210.859 5.55339C212.969 6.31405 214.959 7.19068 216.772 8.15079C224.342 12.1675 228.507 17.4782 228.507 23.1044C228.507 28.7306 224.337 34.046 216.772 38.058C214.963 39.0181 212.974 39.8948 210.859 40.6554V40.6462ZM214.898 8.02556C220.664 12.1721 223.808 17.4643 223.808 23.0951C223.808 28.7259 220.664 34.0181 214.898 38.1647C215.418 37.9142 215.928 37.6591 216.42 37.3994C223.734 33.5172 227.765 28.4384 227.765 23.0998C227.765 17.7612 223.734 12.6777 216.42 8.80014C215.923 8.53576 215.418 8.28066 214.898 8.03483V8.02556Z" fill="black"/>
<path d="M142.921 17.0511C142.921 13.8832 140.356 11.3183 137.189 11.3183H136.136C136.043 11.3183 135.969 11.3925 135.969 11.4853V29.1337C135.969 32.3016 138.534 34.8665 141.702 34.8665H164.471C164.563 34.8665 164.638 34.7923 164.638 34.6996V28.5725C164.638 28.4797 164.563 28.4055 164.471 28.4055H143.933C143.376 28.4055 142.921 27.9556 142.921 27.3944V17.0511Z" fill="black"/>
<path d="M164.471 18.0251H148.641C145.482 18.0251 142.922 20.5854 142.922 23.7441H164.466C164.559 23.7441 164.633 23.6699 164.633 23.5771V18.1968C164.633 18.104 164.559 18.0298 164.466 18.0298L164.471 18.0251Z" fill="black"/>
<path d="M134.642 18.0251H128.023C127.931 18.0251 127.856 18.0994 127.856 18.1921V29.1337C127.856 32.3016 130.421 34.8665 133.589 34.8665H134.642C134.735 34.8665 134.809 34.7923 134.809 34.6995V18.1921C134.809 18.0994 134.735 18.0251 134.642 18.0251Z" fill="black"/>
<path d="M134.642 11.3183H128.023C127.931 11.3183 127.856 11.3931 127.856 11.4853V16.8702C127.856 16.9625 127.931 17.0372 128.023 17.0372H134.642C134.734 17.0372 134.809 16.9625 134.809 16.8702V11.4853C134.809 11.3931 134.734 11.3183 134.642 11.3183Z" fill="black"/>
<path d="M195.445 34.8665H202.064C202.156 34.8665 202.23 34.7923 202.23 34.6996V18.271C202.23 14.4305 199.118 11.3183 195.278 11.3183H187.657C187.564 11.3183 187.49 11.3925 187.49 11.4853V17.0326H194.267C194.823 17.0326 195.278 17.4825 195.278 18.0437V34.6996C195.278 34.7923 195.352 34.8665 195.445 34.8665Z" fill="black"/>
<path d="M167.018 11.3183H165.965C165.872 11.3183 165.798 11.3925 165.798 11.4853V34.6996C165.798 34.7923 165.872 34.8665 165.965 34.8665H172.584C172.676 34.8665 172.751 34.7923 172.751 34.6996V17.0511C172.751 13.8832 170.186 11.3183 167.018 11.3183Z" fill="black"/>
<path d="M187.49 34.6996V17.0511C187.49 13.8832 184.925 11.3183 181.757 11.3183H172.917C172.824 11.3183 172.75 11.3925 172.75 11.4853V17.0326H179.526C180.083 17.0326 180.538 17.4825 180.538 18.0437V34.6996C180.538 34.7923 180.612 34.8665 180.705 34.8665H187.323C187.416 34.8665 187.49 34.7923 187.49 34.6996Z" fill="black"/>
</svg>
